<svg xmlns="http://www.w3.org/2000/svg" viewBox="0 0 670.14 177.12"><defs><style>.cls-1{fill:#53514f;}</style></defs><g id="Calque_2" data-name="Calque 2"><g id="Calque_1-2" data-name="Calque 1"><path class="cls-1" d="M218.87,141.06a.64.64,0,0,1,.62.68V176a.6.6,0,0,1-.62.63h-4.54a.65.65,0,0,1-.68-.63V161.36H194.91V176a.63.63,0,0,1-.62.63h-4.6a.63.63,0,0,1-.62-.63V141.74a.68.68,0,0,1,.62-.68h4.6a.68.68,0,0,1,.62.68v14.4h18.74v-14.4a.69.69,0,0,1,.68-.68Z"/><path class="cls-1" d="M262.3,177.12c-10.23,0-18.79-7.67-18.79-18.21s8.56-18.32,18.79-18.32,18.79,7.72,18.79,18.32-8.61,18.21-18.79,18.21m0-31.05a12.81,12.81,0,1,0,12.58,12.84,12.59,12.59,0,0,0-12.58-12.84"/><path class="cls-1" d="M330.43,141.06a.64.64,0,0,1,.62.68v3.86a.61.61,0,0,1-.62.63H319.15V176a.64.64,0,0,1-.67.63h-4.55a.6.6,0,0,1-.62-.63V146.23H302a.61.61,0,0,1-.62-.63v-3.86a.64.64,0,0,1,.62-.68Z"/><path class="cls-1" d="M381.56,141.06a.64.64,0,0,1,.62.68v3.86a.61.61,0,0,1-.62.63H361.93v10h16.91a.61.61,0,0,1,.63.63v3.91a.64.64,0,0,1-.63.63H361.93v10.07h19.63a.63.63,0,0,1,.62.63V176a.6.6,0,0,1-.62.63H356.71a.64.64,0,0,1-.63-.63V141.74a.69.69,0,0,1,.63-.68Z"/><path class="cls-1" d="M416.85,141.06a.68.68,0,0,1,.62.68v29.69h16.65a.63.63,0,0,1,.62.63V176a.6.6,0,0,1-.62.63H412.25a.63.63,0,0,1-.62-.63V141.74a.68.68,0,0,1,.62-.68Z"/><path class="cls-1" d="M455.21,173.78a.59.59,0,0,1-.26-.89l1.82-3.86a.52.52,0,0,1,.84-.21,18,18,0,0,0,9.86,3.29,8.19,8.19,0,0,0,5-1.35,4.79,4.79,0,0,0,1.93-4c0-2.4-1.93-3.75-4.49-4.75-3-1.19-6.47-1.77-9.81-3.65-2.87-1.61-4.91-3.86-4.91-7.88a8.69,8.69,0,0,1,3.4-7.15c2.19-1.72,5.43-2.71,9.7-2.71a22.29,22.29,0,0,1,10.86,2.61.64.64,0,0,1,.26.89l-1.82,3.8a.61.61,0,0,1-.9.27,17.55,17.55,0,0,0-8.71-2.51,7.89,7.89,0,0,0-5.12,1.41,3.81,3.81,0,0,0-1.51,3.13c0,2.3,1.93,3.5,4.86,4.49,3.33,1.2,7.09,1.77,10.17,3.76a8.85,8.85,0,0,1,4.39,7.83,9.84,9.84,0,0,1-3.87,8.08,14.91,14.91,0,0,1-9.34,2.77,23,23,0,0,1-12.31-3.34"/><polygon class="cls-1" points="15.86 2.06 0 2.04 0 76.44 12.46 76.44 12.41 18.13 45.3 78.14 48.37 78.14 81.25 18.13 81.19 76.44 93.67 76.44 93.67 2.04 77.89 2.06 46.98 59.13 15.86 2.06"/><polygon class="cls-1" points="142.69 66.43 142.68 42.27 178.18 42.27 178.18 32.25 142.68 32.24 142.68 12.08 188.82 12.07 188.82 2.05 130.23 2.04 130.23 76.46 189.71 76.45 189.71 66.43 142.69 66.43"/><polygon class="cls-1" points="623.11 66.43 623.11 42.27 658.61 42.27 658.61 32.25 623.11 32.24 623.11 12.08 669.25 12.07 669.25 2.05 610.66 2.04 610.66 76.46 670.14 76.45 670.13 66.43 623.11 66.43"/><path class="cls-1" d="M372.08,21.14l9.7-7.06a38.82,38.82,0,1,0-29.87,63.59A38.74,38.74,0,0,0,381.1,64.45l-9.77-7.12a26.86,26.86,0,0,1-19.45,8.36c-14.81,0-25.85-12-25.85-26.86S337.07,12,351.88,12A26.74,26.74,0,0,1,372.08,21.14Z"/><path class="cls-1" d="M470.43,2.28V42.1c-.07,12.4-10.17,23-22.59,23s-22.52-10.6-22.59-23V2.28h-12.5V43h0a35.09,35.09,0,0,0,70.17,0h0V2.28Z"/><path class="cls-1" d="M273.18,46.28c6.69-3.71,10.56-11.1,10.6-20.29,0-7.36-1.92-13.07-5.81-17-4.59-4.61-12.09-6.94-22.31-6.94H226.12V76.47h12.47V50.63h22.06L273.8,76.47h13.84L272.15,46.85Zm-17.25-6.81-7.87,0-7.5,0h-2V12.77h2l7.2,0c2.58,0,5.22,0,7.92,0,7,0,16.34,1.37,16.34,13.26C272,34.93,266.61,39.47,255.93,39.47Z"/><path class="cls-1" d="M564.31,46.28c6.69-3.71,10.56-11.1,10.6-20.29,0-7.36-1.92-13.07-5.81-17C564.51,4.41,557,2.08,546.79,2.08H517.25V76.47h12.47V50.63h22.06l13.17,25.83h13.84L563.28,46.85Zm-17.25-6.81-7.87,0-7.5,0h-2V12.77h2l7.2,0c2.58,0,5.22,0,7.92,0,7,0,16.34,1.37,16.34,13.26C563.15,34.93,557.74,39.47,547.06,39.47Z"/></g></g></svg>