<svg width="172" height="36" viewBox="0 0 172 36" fill="none" xmlns="http://www.w3.org/2000/svg">
<path d="M63.1975 26.2024H66.3501C68.16 26.2024 69.2324 26.892 69.2324 28.4936V28.5443C69.2324 29.4197 68.8383 30.1093 67.8419 30.4161C69.0354 30.6751 69.604 31.3281 69.604 32.4962V32.5441C69.604 34.1823 68.5203 35.007 66.5865 35.007H63.2003V26.2024H63.1975ZM66.153 29.9095C67.2367 29.9095 67.6561 29.5154 67.6561 28.6175V28.5696C67.6561 27.7336 67.1748 27.3762 66.1305 27.3762H64.8019V29.9123H66.1558L66.153 29.9095ZM66.3867 33.8361C67.4816 33.8361 67.9883 33.3435 67.9883 32.4315V32.3808C67.9883 31.4688 67.4844 31.0129 66.2769 31.0129H64.7991V33.8333H66.3867V33.8361Z" fill="#161615"/>
<path d="M73.494 31.1902L70.575 26.2024H72.3849L74.3666 29.8475L76.3003 26.2024H77.9019L75.1434 31.2014V35.007H73.494V31.1902Z" fill="#161615"/>
<path d="M84.072 26.2024H85.7214V35.007H84.072V26.2024Z" fill="#161615"/>
<path d="M88.7782 26.2024H90.4164V29.9461H94.3684V26.2024H96.0178V35.007H94.3684V31.2634H90.4164V35.007H88.7782V26.2024Z" fill="#161615"/>
<path d="M98.3232 30.6611V30.5626C98.3232 27.9392 100.144 26.0674 102.72 26.0674C104.603 26.0674 106.278 26.9287 106.511 29.0342H104.873C104.676 27.8632 103.888 27.3594 102.742 27.3594C101.02 27.3594 100.02 28.6401 100.02 30.5738V30.6724C100.02 32.5555 100.896 33.8502 102.742 33.8502C104.392 33.8502 105.07 32.8538 105.118 31.635H102.903V30.4021H106.734V31.2156C106.734 33.6532 105.208 35.131 102.72 35.131C99.8995 35.131 98.3232 33.2591 98.3232 30.6611Z" fill="#161615"/>
<path d="M55.9551 30.1855H17.7557V31.0103H55.9551V30.1855Z" fill="#161615"/>
<path d="M152.17 30.1855H113.971V31.0103H152.17V30.1855Z" fill="#161615"/>
<path d="M75.073 0.222124H76.7028V16.5141H75.2306L67.0903 4.74266V16.5141H65.4605V0.20242L66.9327 0.222124L75.073 11.9935V0.222124ZM57.1766 12.0695L54.3928 0.222124H53.1036L50.0749 12.959L47.1814 0.222124L44.4848 0.20242L48.5212 16.5141H50.2072L53.1656 4.30919L56.0254 16.5141H57.3596L61.396 0.222124H59.9042L57.1794 12.0695H57.1766ZM113.03 4.45274C113.03 6.81153 111.553 9.33075 107.406 9.33075H105.338V16.5338H102.709V0.222124H107.024C108.974 0.222124 110.241 0.275605 111.386 1.02715C112.816 1.98136 113.03 3.58579 113.03 4.45555V4.45274ZM110.227 4.47244C110.227 3.15513 109.791 2.07988 109.109 1.73366C108.766 1.57603 108.403 1.48315 108.028 1.45781C107.685 1.42685 107.339 1.42685 107.004 1.42685L105.338 1.43248V8.07536H106.877C109.098 8.07536 110.227 6.86219 110.227 4.47244ZM21.0095 8.78469L26.3745 16.5563H23.661L19.0054 9.20409L18.9857 9.17594H17.7528V16.5591H15.1576V0.222124H18.9885C20.7027 0.222124 21.8371 0.222124 23.0587 0.906116C24.2493 1.59011 24.9671 2.87083 24.9277 4.24445C24.9277 6.53568 23.5316 8.18233 21.0968 8.76499L21.0067 8.7875L21.0095 8.78469ZM22.2368 4.52592C22.2368 3.21424 21.8005 2.13336 21.1249 1.76744C20.7815 1.60137 20.4128 1.50285 20.0328 1.47189C19.6359 1.43248 19.2306 1.43248 18.8393 1.43248H17.7697V8.10633H18.6648C21.0349 8.10633 22.2368 6.9016 22.2368 4.52874V4.52592ZM9.9784 14.6057C9.14804 15.1517 8.17975 15.467 7.18332 15.5148C5.13416 15.5148 2.93582 13.2883 2.93582 8.39906C2.93582 4.19659 4.75416 1.26359 7.36065 1.26359C8.29516 1.2833 9.22966 1.51974 10.06 1.9504L10.136 1.98699L10.7525 0.847006L10.6877 0.813228C9.60685 0.281235 8.3993 -0.000244141 7.19176 -0.000244141C7.15517 -0.000244141 7.11858 -0.000244141 7.08199 -0.000244141C2.1899 -0.000244141 0 4.25008 0 8.4638C0 10.7635 0.602363 12.8408 1.69731 14.3157C2.89641 15.9314 4.63313 16.7843 6.72451 16.7843C8.1319 16.7702 9.51959 16.3902 10.7412 15.6865L10.8059 15.6528L10.0628 14.5634L9.98121 14.6085L9.9784 14.6057ZM39.7644 1.71396C41.1521 3.13261 41.8558 5.30843 41.8558 8.17951C41.8558 13.4122 39.2662 16.7927 35.2579 16.7927C31.2497 16.7927 28.8684 13.5079 28.8684 8.42158V8.37936C28.8684 5.74754 29.5636 3.56608 30.8781 2.07425C32.0547 0.737228 33.7042 0.00257124 35.5197 0.00257124C37.1776 0.00257124 38.6863 0.610563 39.7644 1.71396ZM38.965 8.38499C38.965 3.64771 37.749 1.14256 35.4522 1.14256C33.1553 1.14256 31.7648 3.86727 31.7648 8.43566V8.4638C31.7648 13.7218 33.6929 15.5852 35.3424 15.5852C35.9476 15.5852 38.9678 15.239 38.9678 8.38499H38.965ZM84.4124 8.5764H89.9041V7.29848H84.4124V1.49159H90.2785V0.222124L81.7834 0.20242V16.5141H90.3826V15.2221H84.4096V8.57921L84.4124 8.5764ZM153.473 1.26078V0.222124H142.968V1.53944H150.467L142.484 15.5233V16.5366H153.907V15.1658H145.547L153.476 1.26359L153.473 1.26078ZM134.285 0.222124L140.027 16.5338H137.17L135.25 10.8057H130.752L128.878 16.5338H127.27L132.951 0.222124H134.285ZM135.014 9.66853L133.198 3.87289L131.343 9.66853H135.014ZM119.009 0.222124H116.394V16.5338H124.796V15.2221H119.009V0.222124ZM163.353 0.222124L169.095 16.5338H166.238L164.318 10.8085H159.82L157.946 16.5338H156.339L162.019 0.222124H163.353ZM164.082 9.66853L162.266 3.87289L160.412 9.66853H164.082Z" fill="#161615"/>
<path d="M171.488 0.731644C171.147 0.391055 170.733 0.222168 170.249 0.222168C169.765 0.222168 169.357 0.391055 169.019 0.731644C168.678 1.07223 168.507 1.48319 168.507 1.96452C168.507 2.44584 168.676 2.86243 169.013 3.20584C169.354 3.54924 169.765 3.72094 170.249 3.72094C170.733 3.72094 171.144 3.54924 171.488 3.20584C171.828 2.86243 172 2.44866 172 1.96452C172 1.48037 171.828 1.07223 171.488 0.731644ZM171.313 3.03695C171.02 3.3325 170.666 3.47887 170.249 3.47887C169.832 3.47887 169.478 3.3325 169.185 3.03695C168.895 2.7414 168.749 2.38392 168.749 1.96733C168.749 1.55074 168.895 1.19608 169.188 0.903345C169.481 0.607794 169.835 0.461425 170.249 0.461425C170.663 0.461425 171.02 0.607794 171.313 0.903345C171.606 1.19608 171.752 1.55074 171.752 1.96733C171.752 2.38392 171.606 2.74421 171.313 3.03695Z" fill="#161615"/>
<path d="M171.029 2.89339C171.02 2.8765 171.015 2.84553 171.012 2.79487C171.009 2.7442 171.006 2.69635 171.006 2.65131V2.51057C171.006 2.41487 170.972 2.31354 170.902 2.21221C170.832 2.11088 170.722 2.04895 170.573 2.02362C170.691 2.00391 170.784 1.97295 170.848 1.93073C170.972 1.8491 171.037 1.72244 171.037 1.55073C171.037 1.30866 170.939 1.14822 170.739 1.06378C170.629 1.01874 170.454 0.993408 170.215 0.993408H169.545V2.91027H169.883V2.15591H170.15C170.331 2.15591 170.454 2.17562 170.528 2.21784C170.649 2.28821 170.708 2.43457 170.708 2.65694V2.80894L170.716 2.87087C170.716 2.87087 170.719 2.88494 170.722 2.89339C170.722 2.89901 170.725 2.90464 170.727 2.91309H171.043L171.031 2.89057L171.029 2.89339ZM170.511 1.88288C170.44 1.91103 170.331 1.9251 170.19 1.9251H169.883V1.22985H170.173C170.361 1.22985 170.497 1.25237 170.581 1.30022C170.665 1.34807 170.708 1.44096 170.708 1.5817C170.708 1.72807 170.643 1.8294 170.511 1.88288Z" fill="#161615"/>
</svg>
